<svg width="4" height="15" viewBox="0 0 4 15" fill="none" xmlns="http://www.w3.org/2000/svg">
<path d="M2 8.39453C2.55228 8.39453 3 8.05874 3 7.64453C3 7.23032 2.55228 6.89453 2 6.89453C1.44772 6.89453 1 7.23032 1 7.64453C1 8.05874 1.44772 8.39453 2 8.39453Z" stroke="white" stroke-opacity="0.55" stroke-width="2" stroke-linecap="round" stroke-linejoin="round"/>
<path d="M2 3.14453C2.55228 3.14453 3 2.80874 3 2.39453C3 1.98032 2.55228 1.64453 2 1.64453C1.44772 1.64453 1 1.98032 1 2.39453C1 2.80874 1.44772 3.14453 2 3.14453Z" stroke="white" stroke-opacity="0.55" stroke-width="2" stroke-linecap="round" stroke-linejoin="round"/>
<path d="M2 13.6445C2.55228 13.6445 3 13.3087 3 12.8945C3 12.4803 2.55228 12.1445 2 12.1445C1.44772 12.1445 1 12.4803 1 12.8945C1 13.3087 1.44772 13.6445 2 13.6445Z" stroke="white" stroke-opacity="0.55" stroke-width="2" stroke-linecap="round" stroke-linejoin="round"/>
</svg>
